<?xml version="1.0" encoding="utf-8"?>
<!-- Generator: Adobe Illustrator 18.1.1, SVG Export Plug-In . SVG Version: 6.00 Build 0)  -->
<svg version="1.1" id="Layer_1" xmlns="http://www.w3.org/2000/svg" xmlns:xlink="http://www.w3.org/1999/xlink" x="0px" y="0px"
	 viewBox="0 0 1366 768" enable-background="new 0 0 1366 768" xml:space="preserve">
<g>
	<g>
		<ellipse fill="#FFFFFF" cx="755" cy="384" rx="83.9" ry="85.2"/>
	</g>
	<g>
		<g>
			<polygon fill="none" points="83.4,333.3 83.4,361.7 31.4,361.7 31.4,369.8 83.4,369.8 83.4,398.2 31.4,398.2 31.4,408.3 
				83.4,408.3 83.4,434.7 31.4,434.7 31.4,450.9 125.4,450.9 125.4,428.6 161.3,408.3 161.3,359.7 125.4,339.4 125.4,319.1 
				31.4,319.1 31.4,333.3 			"/>
		</g>
		<g>
			<path fill="#FFFFFF" d="M125.4,286.6H-0.6v194.7h123.9v18.3h101.9c36,0,64-24.3,74-56.8l42-24.3h443.7v-64.9H343.2l-46-26.4
				c-8-32.5-38-56.8-74-56.8H121.4v16.2H125.4z M125.4,319.1v20.3l36,20.3v48.7l-36,20.3v20.3H33.4v-16.2h52v-24.3h-52v-10.1h52
				v-26.4h-52v-10.1h52v-26.4h-52v-16.2L125.4,319.1L125.4,319.1z"/>
		</g>
	</g>
	<g opacity="0.3">
		<path fill="#FFFFFF" d="M1058.8,696.4c-85.9,0-165.9-36.5-223.9-99.4c-28,12.2-60,20.3-91.9,20.3C615,617.3,513.1,511.8,513.1,384
			S617,150.7,743,150.7c32,0,62,6.1,91.9,20.3c58-62.9,137.9-99.4,223.9-99.4c169.9,0,307.8,140,307.8,312.4
			S1228.6,696.4,1058.8,696.4z M848.9,521.9l16,20.3c48,60.9,117.9,95.3,193.9,95.3c137.9,0,247.8-113.6,247.8-251.5
			s-111.9-251.5-247.8-251.5c-75.9,0-145.9,34.5-193.9,95.3l-16,20.3l-22-12.2c-26-14.2-54-22.3-83.9-22.3
			c-93.9,0-169.9,77.1-169.9,172.4S649,560.5,743,560.5c30,0,58-8.1,83.9-22.3L848.9,521.9z"/>
	</g>
</g>
</svg>
