<?xml version="1.0" encoding="utf-8"?>
<!-- Generator: Adobe Illustrator 18.1.1, SVG Export Plug-In . SVG Version: 6.00 Build 0)  -->
<svg version="1.1" id="Layer_1" xmlns="http://www.w3.org/2000/svg" xmlns:xlink="http://www.w3.org/1999/xlink" x="0px" y="0px"
	 viewBox="0 0 1366 768" enable-background="new 0 0 1366 768" xml:space="preserve">
<g>
	<g>
		<g>
			<circle fill="#FFFFFF" cx="484.6" cy="384" r="84.4"/>
		</g>
	</g>
	<g opacity="0.3">
		<g>
			<path fill="#FFFFFF" d="M803.8,696.4c-87,0-168.7-35.7-227.7-98.7c-29.3,12.8-61.1,19.5-93.1,19.5
				c-128.6,0-233.2-104.6-233.2-233.2S354.4,150.8,483,150.8c32,0,63.7,6.7,93.1,19.5c59-63,140.7-98.7,227.7-98.7
				c172.3,0,312.4,140.1,312.4,312.4S976,696.4,803.8,696.4z M591,520.7l16.3,20.3c48.1,60.2,119.7,94.7,196.5,94.7
				c138.8,0,251.7-112.9,251.7-251.7S942.5,132.3,803.8,132.3c-76.7,0-148.3,34.5-196.5,94.7L591,247.3l-22.6-12.9
				c-26.1-14.9-55.6-22.8-85.5-22.8c-95.1,0-172.4,77.4-172.4,172.4S387.9,556.4,483,556.4c29.8,0,59.4-7.9,85.5-22.8L591,520.7z"/>
		</g>
	</g>
	<g>
		<g>
			<path fill="#FFFFFF" d="M807,206.1c-95.2,0-172.3,77.2-172.3,172.3S711.8,550.8,807,550.8s172.3-77.2,172.3-172.3
				S902.2,206.1,807,206.1z M807,496.1c-65,0-117.6-52.7-117.6-117.6S742,260.9,807,260.9s117.6,52.7,117.6,117.6
				S872,496.1,807,496.1z"/>
		</g>
		<g>
			<path fill="#FFFFFF" d="M807,468.6c-49.7,0-90.1-40.4-90.1-90.1c0-49.7,40.4-90.1,90.1-90.1c49.7,0,90.1,40.4,90.1,90.1
				C897.1,428.2,856.7,468.6,807,468.6z M807,309.3c-38.2,0-69.2,31-69.2,69.2s31,69.2,69.2,69.2c38.2,0,69.2-31,69.2-69.2
				S845.2,309.3,807,309.3z"/>
		</g>
		<g>
			<rect x="634.7" y="373.2" fill="#59696C" width="54.7" height="10.5"/>
		</g>
		<g>
			<rect x="924.6" y="373.2" fill="#59696C" width="54.7" height="10.5"/>
		</g>
		<g>
			
				<rect x="699.3" y="453.6" transform="matrix(0.7071 0.7071 -0.7071 0.7071 546.4561 -357.2679)" fill="#59696C" width="10.5" height="54.7"/>
		</g>
		<g>
			
				<rect x="904.3" y="248.6" transform="matrix(0.7071 0.7071 -0.7071 0.7071 461.5282 -562.3021)" fill="#59696C" width="10.5" height="54.7"/>
		</g>
		<g>
			<rect x="801.8" y="496.1" fill="#59696C" width="10.5" height="54.7"/>
		</g>
		<g>
			<rect x="801.8" y="206.1" fill="#59696C" width="10.5" height="54.7"/>
		</g>
		<g>
			
				<rect x="882.2" y="475.8" transform="matrix(0.7071 0.7071 -0.7071 0.7071 606.5092 -502.2489)" fill="#59696C" width="54.7" height="10.5"/>
		</g>
		<g>
			
				<rect x="677.1" y="270.7" transform="matrix(0.7071 0.7071 -0.7071 0.7071 401.4751 -417.321)" fill="#59696C" width="54.7" height="10.5"/>
		</g>
	</g>
</g>
</svg>
