<?xml version="1.0" encoding="utf-8"?>
<!-- Generator: Adobe Illustrator 18.1.1, SVG Export Plug-In . SVG Version: 6.00 Build 0)  -->
<svg version="1.1" id="Layer_1" xmlns="http://www.w3.org/2000/svg" xmlns:xlink="http://www.w3.org/1999/xlink" x="0px" y="0px"
	 viewBox="0 0 1366 768" enable-background="new 0 0 1366 768" xml:space="preserve">
<g>
	<g>
		<g>
			<ellipse fill="#FFFFFF" cx="686.4" cy="384.1" rx="108.5" ry="111.2"/>
		</g>
	</g>
	<g>
		<path fill="#FFFFFF" d="M1246.2,93.5c-16.1-16.1-16.1-16.1-16.1-16.1c-20.1-18.7-50.9-17.4-69.6,0c-18.7,18.7-16.1,46.9,2.7,65.6
			c0,0,0,0,16.1,16.1c124.5,124.5,124.5,326.8,0,451.3c-16.1,16.1-16.1,16.1-16.1,16.1c-20.1,20.1-20.1,48.2-1.3,67
			c18.7,18.7,45.5,18.7,67-1.3c0,0,0,0,16.1-16.1C1406.9,516.7,1406.9,254.2,1246.2,93.5z"/>
	</g>
	<g>
		<path fill="#FFFFFF" d="M1113.6,219.4c-16.1-16.1-16.1-16.1-16.1-16.1c-17.4-16.1-45.5-18.7-64.3,0c-18.7,18.7-16.1,45.5,1.3,61.6
			c0,0,0,0,16.1,16.1c57.6,57.6,57.6,151.3,0,208.9c-16.1,16.1-16.1,16.1-16.1,16.1c-18.7,20.1-18.7,44.2,0,62.9
			c18.7,18.7,45.5,14.7,62.9-1.3c0,0,0,0,16.1-16.1C1206,460.4,1206,310.4,1113.6,219.4z"/>
	</g>
	<g>
		<path fill="#FFFFFF" d="M186.9,607.7C62.4,483.2,62.4,281,186.9,156.4c16.1-16.1,16.1-16.1,16.1-16.1
			c18.7-18.7,21.4-46.9,2.7-65.6s-49.6-18.7-69.6,0c0,0,0,0-16.1,16.1C-40.7,251.5-40.7,514,120,674.7
			c16.1,16.1,16.1,16.1,16.1,16.1c21.4,20.1,48.2,20.1,67,1.3c18.7-18.7,18.7-48.2-1.3-67C204.3,623.8,204.3,623.8,186.9,607.7z"/>
	</g>
	<g>
		<path fill="#FFFFFF" d="M331.5,260.9c17.4-17.4,20.1-44.2,1.3-61.6c-18.7-18.7-46.9-16.1-64.3,0c0,0,0,0-16.1,16.1
			c-91.1,91.1-91.1,241.1,0,332.1c16.1,16.1,16.1,16.1,16.1,16.1c17.4,16.1,44.2,20.1,62.9,1.3c18.7-18.7,18.7-42.9,0-62.9
			c0,0,0,0-16.1-16.1c-57.6-57.6-57.6-151.3,0-208.9C331.5,260.9,331.5,260.9,331.5,260.9z"/>
	</g>
	<g opacity="0.3">
		<path fill="#FFFFFF" d="M689.1,674.7c-159.4,0-287.9-128.6-287.9-287.9s128.5-288,287.9-288c158,0,287.9,128.6,287.9,287.9
			C977,544.8,847.1,674.7,689.1,674.7z M689.1,165.8c-121.9,0-221,99.1-221,221s99.1,221,221,221s221-99.1,221-221
			S811,165.8,689.1,165.8z"/>
	</g>
</g>
</svg>
